# xmcd
#
# Track frame offsets:
#	150
#	11927
#	26380
#	43243
#	64754
#	81045
#	99938
#	117293
#	133821
#	152739
#	167803
#	182953
#	207419
#	221064
#	236154
#	251976
#
# Disc length: 3530
#
# Revision: 1
# Processed by: cddbd v1.5.1PL0 Copyright (c) Steve Scherf et al.
# Submitted via: EZCDDA 4.3.3.2
# Normalized: r0:DSETVAR1,TDELIM( - )
#
DISCID=eb0dc810
DTITLE=Various Artist - Les plus beaux slows
DYEAR=1900
DGENRE=
TTITLE0=The Platters - Only you (and you alone)
TTITLE1=Aphrodite's child - Rain and tears
TTITLE2=10 CC - I'm not in love
TTITLE3=Kool and the gang - Cherish
TTITLE4=Commodores - Three times a lady
TTITLE5=Claude François - Comme d'habitude
TTITLE6=Michel Delpech - Wight is wight
TTITLE7=Il était une fois - J'ai encore rêvé d'elle
TTITLE8=Nicolas Peyrac - So for away from L.A.
TTITLE9=Johnny Hallyday - Que je t'aime
TTITLE10=Mike Brant - Qui saura
TTITLE11=Robert Charlebois et Louise Forestier - Lindberg
TTITLE12=Patrick Juvet - La musica
TTITLE13=Richard Anthony - Et j'entends siffler le train
TTITLE14=Eddy Mitchell - Couleur menthe à l'eau
TTITLE15=James Brown - It's a man's man's man's world
EXTD=
EXTT0=
EXTT1=
EXTT2=
EXTT3=
EXTT4=
EXTT5=
EXTT6=
EXTT7=
EXTT8=
EXTT9=
EXTT10=
EXTT11=
EXTT12=
EXTT13=
EXTT14=
EXTT15=
PLAYORDER=
